<?xml version="1.0" standalone="no"?>
<!DOCTYPE svg PUBLIC "-//W3C//DTD SVG 20010904//EN"
 "http://www.w3.org/TR/2001/REC-SVG-20010904/DTD/svg10.dtd">
<svg version="1.0" xmlns="http://www.w3.org/2000/svg"
 width="491.000000pt" height="491.000000pt" viewBox="0 0 491.000000 491.000000"
 preserveAspectRatio="xMidYMid meet">
<metadata>
Created by potrace 1.11, written by Peter Selinger 2001-2013
</metadata>
<g transform="translate(0.000000,491.000000) scale(0.100000,-0.100000)"
fill="#000000" stroke="none">
<path d="M3749 3545 c-2 -2 -29 -6 -59 -9 -49 -5 -187 -31 -215 -40 -5 -1 -23
-6 -40 -10 -88 -23 -271 -104 -309 -138 -11 -10 -24 -18 -28 -18 -16 0 -154
-108 -212 -166 -133 -133 -236 -317 -277 -494 -6 -25 -13 -54 -15 -65 -19 -78
-25 -305 -12 -425 23 -219 125 -437 280 -600 46 -49 134 -120 147 -120 6 0 11
-4 11 -8 0 -23 231 -126 340 -152 25 -6 54 -13 65 -15 11 -3 43 -8 70 -11 28
-3 61 -8 75 -11 29 -8 930 -11 945 -3 6 2 39 5 75 6 36 1 67 2 70 3 3 0 5 74
5 163 l0 163 -470 0 c-336 0 -489 4 -535 13 -88 17 -182 43 -199 56 -7 5 -18
11 -25 12 -6 1 -46 23 -89 49 -114 69 -186 166 -238 320 -33 99 -43 165 -43
310 0 132 8 200 34 290 87 304 310 482 640 512 89 9 231 8 520 -2 135 -5 281
-9 325 -10 l80 0 2 187 2 187 -52 6 c-102 12 -859 30 -868 20z"/>
<path d="M1060 3523 c-355 -50 -629 -226 -808 -520 -61 -100 -121 -273 -138
-398 -11 -76 -11 -351 -1 -430 31 -233 131 -452 281 -613 85 -91 269 -212 378
-247 106 -34 211 -60 285 -70 67 -9 368 -9 424 0 104 16 205 38 214 46 5 5 17
9 27 9 33 0 203 83 283 138 72 50 195 176 248 253 74 109 136 255 161 384 4
17 9 41 12 55 22 105 23 423 1 520 -2 8 -7 33 -11 55 -13 69 -67 223 -98 283
-99 186 -240 327 -415 416 -50 25 -147 66 -168 70 -5 2 -28 8 -50 14 -155 44
-445 60 -625 35z m350 -325 c0 -5 4 -7 9 -3 17 10 103 -16 186 -55 159 -76
256 -203 312 -410 19 -70 21 -86 30 -190 12 -134 7 -302 -11 -385 -59 -278
-178 -444 -388 -542 -27 -12 -48 -21 -48 -19 0 2 -30 -4 -67 -14 -79 -20 -269
-20 -343 0 -25 7 -54 14 -65 16 -47 9 -164 76 -213 123 -69 66 -111 130 -149
227 -28 71 -37 100 -59 209 -3 17 -7 107 -9 202 -4 230 21 359 97 508 31 60
103 154 146 188 12 10 28 24 35 30 41 37 144 86 226 107 73 18 311 25 311 8z"/>
<path d="M1726 2835 c-15 -12 -46 -28 -68 -36 -33 -11 -39 -16 -36 -38 3 -26
18 -31 57 -20 15 4 45 -61 54 -118 3 -18 7 -36 10 -40 5 -7 20 -172 19 -208 0
-42 -15 -178 -24 -215 -5 -25 -11 -52 -13 -61 -2 -9 -13 -47 -24 -84 -12 -37
-20 -69 -19 -71 2 -1 15 -5 30 -9 25 -6 27 -4 44 52 9 32 18 63 20 68 4 20 14
61 25 110 16 70 16 356 0 430 -7 33 -22 86 -33 119 l-19 59 27 28 c29 31 29
31 -1 47 -16 8 -26 5 -49 -13z"/>
<path d="M3289 2417 c-24 -26 -25 -79 -1 -100 42 -38 112 -6 112 51 0 55 -75
87 -111 49z"/>
<path d="M3852 2424 c-36 -15 -50 -51 -31 -86 16 -30 28 -38 59 -38 39 1 63
25 63 64 0 60 -36 84 -91 60z"/>
<path d="M4410 2432 c-48 -15 -64 -67 -34 -110 33 -47 114 -14 114 46 0 40
-44 76 -80 64z"/>
</g>
</svg>
